<mxfile host="app.diagrams.net" modified="2023-10-18T11:49:14.324Z" agent="Mozilla/5.0 (Windows NT 10.0; Win64; x64) AppleWebKit/537.36 (KHTML, like Gecko) Chrome/116.0.5845.967 YaBrowser/23.9.1.967 Yowser/2.5 Safari/537.36" etag="NFKjmjADmCb6U7Oh2Oij" version="22.0.4" type="device">
  <diagram name="Page-1" id="2ca16b54-16f6-2749-3443-fa8db7711227">
    <mxGraphModel dx="1728" dy="953" grid="0" gridSize="10" guides="1" tooltips="1" connect="1" arrows="1" fold="1" page="1" pageScale="1" pageWidth="1100" pageHeight="850" background="none" math="0" shadow="0">
      <root>
        <mxCell id="0" />
        <mxCell id="1" parent="0" />
        <mxCell id="2ed32ef02a7f4228-1" value="&lt;div style=&quot;box-sizing:border-box;width:100%;background:#e4e4e4;padding:2px;&quot;&gt;Athletes&lt;/div&gt;&lt;table style=&quot;width:100%;font-size:1em;&quot; cellpadding=&quot;2&quot; cellspacing=&quot;0&quot;&gt;&lt;tbody&gt;&lt;tr&gt;&lt;td&gt;PK&lt;/td&gt;&lt;td&gt;ID INT&lt;/td&gt;&lt;/tr&gt;&lt;tr&gt;&lt;td&gt;&lt;br&gt;&lt;/td&gt;&lt;td&gt;FirstName VARCHAR&lt;/td&gt;&lt;/tr&gt;&lt;tr&gt;&lt;td&gt;&lt;/td&gt;&lt;td&gt;LastName VARCHAR&lt;br&gt;DateOfBirth DATE&lt;br&gt;Gender CHAR&lt;/td&gt;&lt;/tr&gt;&lt;/tbody&gt;&lt;/table&gt;" style="verticalAlign=top;align=left;overflow=fill;html=1;rounded=0;shadow=0;comic=0;labelBackgroundColor=none;strokeWidth=1;fontFamily=Verdana;fontSize=12" parent="1" vertex="1">
          <mxGeometry x="340" y="40" width="180" height="120" as="geometry" />
        </mxCell>
        <mxCell id="2ed32ef02a7f4228-16" style="edgeStyle=orthogonalEdgeStyle;html=1;labelBackgroundColor=none;startArrow=ERmandOne;endArrow=ERoneToMany;fontFamily=Verdana;fontSize=12;align=left;entryX=0.5;entryY=0;entryDx=0;entryDy=0;exitX=0.5;exitY=1;exitDx=0;exitDy=0;" parent="1" source="2ed32ef02a7f4228-3" target="2ed32ef02a7f4228-4" edge="1">
          <mxGeometry relative="1" as="geometry" />
        </mxCell>
        <mxCell id="2ed32ef02a7f4228-3" value="&lt;div style=&quot;box-sizing: border-box ; width: 100% ; background: #e4e4e4 ; padding: 2px&quot;&gt;Results&lt;/div&gt;&lt;table style=&quot;width: 100% ; font-size: 1em&quot; cellpadding=&quot;2&quot; cellspacing=&quot;0&quot;&gt;&lt;tbody&gt;&lt;tr&gt;&lt;td&gt;PK&lt;/td&gt;&lt;td&gt;ID INT&lt;/td&gt;&lt;/tr&gt;&lt;tr&gt;&lt;td&gt;FK1&lt;/td&gt;&lt;td&gt;CompetitionID INT&lt;/td&gt;&lt;/tr&gt;&lt;tr&gt;&lt;td&gt;FK2&lt;/td&gt;&lt;td&gt;AthleteID INT&lt;/td&gt;&lt;/tr&gt;&lt;tr&gt;&lt;td&gt;&lt;br&gt;&lt;/td&gt;&lt;td&gt;&lt;br&gt;&lt;/td&gt;&lt;/tr&gt;&lt;/tbody&gt;&lt;/table&gt;" style="verticalAlign=top;align=left;overflow=fill;html=1;rounded=0;shadow=0;comic=0;labelBackgroundColor=none;strokeWidth=1;fontFamily=Verdana;fontSize=12" parent="1" vertex="1">
          <mxGeometry x="340" y="200" width="180" height="80" as="geometry" />
        </mxCell>
        <mxCell id="2ed32ef02a7f4228-4" value="&lt;div style=&quot;box-sizing: border-box ; width: 100% ; background: #e4e4e4 ; padding: 2px&quot;&gt;Competitions&lt;/div&gt;&lt;table style=&quot;width: 100% ; font-size: 1em&quot; cellpadding=&quot;2&quot; cellspacing=&quot;0&quot;&gt;&lt;tbody&gt;&lt;tr&gt;&lt;td&gt;PK&lt;/td&gt;&lt;td&gt;ID INT&lt;/td&gt;&lt;/tr&gt;&lt;tr&gt;&lt;td&gt;FK1&lt;/td&gt;&lt;td&gt;SportID INT&lt;/td&gt;&lt;/tr&gt;&lt;tr&gt;&lt;td&gt;&lt;/td&gt;&lt;td&gt;Name VARCHAR&lt;/td&gt;&lt;/tr&gt;&lt;tr&gt;&lt;td&gt;&lt;br&gt;&lt;/td&gt;&lt;td&gt;DateHeld DATE&lt;br&gt;Venue VARCHAR&lt;/td&gt;&lt;/tr&gt;&lt;/tbody&gt;&lt;/table&gt;" style="verticalAlign=top;align=left;overflow=fill;html=1;rounded=0;shadow=0;comic=0;labelBackgroundColor=none;strokeWidth=1;fontFamily=Verdana;fontSize=12" parent="1" vertex="1">
          <mxGeometry x="340" y="320" width="180" height="120" as="geometry" />
        </mxCell>
        <mxCell id="2ed32ef02a7f4228-15" style="edgeStyle=orthogonalEdgeStyle;html=1;entryX=0.5;entryY=1;labelBackgroundColor=none;startArrow=ERmandOne;endArrow=ERoneToMany;fontFamily=Verdana;fontSize=12;align=left;entryDx=0;entryDy=0;" parent="1" source="2ed32ef02a7f4228-5" target="2ed32ef02a7f4228-4" edge="1">
          <mxGeometry relative="1" as="geometry" />
        </mxCell>
        <mxCell id="2ed32ef02a7f4228-5" value="&lt;div style=&quot;box-sizing:border-box;width:100%;background:#e4e4e4;padding:2px;&quot;&gt;Sports&lt;/div&gt;&lt;table style=&quot;width:100%;font-size:1em;&quot; cellpadding=&quot;2&quot; cellspacing=&quot;0&quot;&gt;&lt;tbody&gt;&lt;tr&gt;&lt;td&gt;PK&lt;/td&gt;&lt;td&gt;ID INT&lt;/td&gt;&lt;/tr&gt;&lt;tr&gt;&lt;td&gt;&lt;br&gt;&lt;/td&gt;&lt;td&gt;Name VARCHAR&lt;/td&gt;&lt;/tr&gt;&lt;tr&gt;&lt;td&gt;&lt;/td&gt;&lt;td&gt;&lt;br&gt;&lt;/td&gt;&lt;/tr&gt;&lt;/tbody&gt;&lt;/table&gt;" style="verticalAlign=top;align=left;overflow=fill;html=1;rounded=0;shadow=0;comic=0;labelBackgroundColor=none;strokeWidth=1;fontFamily=Verdana;fontSize=12" parent="1" vertex="1">
          <mxGeometry x="340" y="480" width="180" height="66" as="geometry" />
        </mxCell>
        <mxCell id="2ed32ef02a7f4228-13" value="" style="edgeStyle=orthogonalEdgeStyle;html=1;endArrow=ERoneToMany;startArrow=ERmandOne;labelBackgroundColor=none;fontFamily=Verdana;fontSize=12;align=left;exitX=0.5;exitY=1;entryX=0.5;entryY=0;entryDx=0;entryDy=0;" parent="1" source="2ed32ef02a7f4228-1" target="2ed32ef02a7f4228-3" edge="1">
          <mxGeometry width="100" height="100" relative="1" as="geometry">
            <mxPoint x="350" y="370" as="sourcePoint" />
            <mxPoint x="450" y="270" as="targetPoint" />
          </mxGeometry>
        </mxCell>
      </root>
    </mxGraphModel>
  </diagram>
</mxfile>
